<?xml version="1.0" encoding="utf-8"?>
<!-- Generator: Adobe Illustrator 27.9.0, SVG Export Plug-In . SVG Version: 6.00 Build 0)  -->
<svg version="1.1" id="Layer_1" xmlns="http://www.w3.org/2000/svg" xmlns:xlink="http://www.w3.org/1999/xlink" x="0px" y="0px"
	 width="1394px" height="834.1px" viewBox="0 0 1394 834.1" style="enable-background:new 0 0 1394 834.1;" xml:space="preserve">
<style type="text/css">
	.st0{fill:#FFFFFF;}
	.st1{fill:#3970B7;}
	.st2{fill:url(#SVGID_1_);}
	.st3{fill:url(#SVGID_00000082333082862561601300000012266635163929584276_);}
	.st4{fill:url(#SVGID_00000068644810934097833500000009414205364610061235_);}
</style>
<rect x="1.4" class="st0" width="1397.1" height="833.4"/>
<g>
	<g>
		<path class="st1" d="M1392.8,538C1379.9,400.6,1264.3,293,1123.5,293c0,0-25.1-2.9-63.1,6.2c-10.2-52.5-31.5-101-61.3-143.1
			c56.2-6.6,114.6,0.3,170.9,22.8C1318.9,238.3,1405.3,386.3,1392.8,538z"/>
		<linearGradient id="SVGID_1_" gradientUnits="userSpaceOnUse" x1="478.186" y1="57.9384" x2="928.2559" y2="450.6881">
			<stop  offset="0" style="stop-color:#89D3E4"/>
			<stop  offset="1" style="stop-color:#3DB0E4"/>
		</linearGradient>
		<path class="st2" d="M1060.4,299.2c-2.8,0.7-5.6,1.4-8.6,2.2c-70,19.3-176.9,79.5-253,262.1c-15,36.1-33.5,67.4-54.4,94.5
			c-0.4,0.4-0.7,0.9-1,1.3c-14.9-25.3-28.1-53.5-39.6-84.6c-27.5-74.2-65.2-138.8-112.1-192c-37.9-43-81.8-78.6-130.4-105.8
			c-41.8-23.4-80-36.6-108.2-44C407.6,96.5,541,0,697,0c124.7,0,235,61.6,302.1,156.1h0C1028.9,198.2,1050.2,246.7,1060.4,299.2z"/>
		
			<linearGradient id="SVGID_00000137103943223107105760000014813847724858286491_" gradientUnits="userSpaceOnUse" x1="0" y1="563.2784" x2="1123.4984" y2="563.2784">
			<stop  offset="0" style="stop-color:#D2ECF2"/>
			<stop  offset="1" style="stop-color:#B4DFF5"/>
		</linearGradient>
		<path style="fill:url(#SVGID_00000137103943223107105760000014813847724858286491_);" d="M1123.5,834.1H270.8
			C121.2,834.1,0,712.9,0,563.4c0-149.5,121.2-270.7,270.8-270.7c0,0,253.4-16.2,409.4,270.7c20.2,37.1,41.8,68.4,64.3,94.8
			C630.7,806.3,446.3,830.6,365.5,833.8L1123.5,834.1z"/>
		<g>
			
				<linearGradient id="SVGID_00000129893420488161502880000006555393803867009709_" gradientUnits="userSpaceOnUse" x1="806.7331" y1="577.8645" x2="1185.3672" y2="821.54">
				<stop  offset="0" style="stop-color:#89D3E4"/>
				<stop  offset="1" style="stop-color:#3DB0E4"/>
			</linearGradient>
			<path style="fill:url(#SVGID_00000129893420488161502880000006555393803867009709_);" d="M1394,563.6
				c0,149.4-121.1,270.5-270.5,270.5l-758-0.3c80.5-3.2,264-27.4,377.9-174.4c0.4-0.4,0.7-0.9,1-1.3c20.8-27.1,39.3-58.4,54.4-94.5
				c76.1-182.7,183-242.8,253-262.1c2.9-0.8,5.8-1.6,8.6-2.2c37.9-9.1,63.1-6.2,63.1-6.2c140.8,0,256.4,107.5,269.3,244.9
				C1393.6,546.4,1394,554.9,1394,563.6z"/>
		</g>
	</g>
</g>
</svg>
